<svg id="Camada_1" data-name="Camada 1" xmlns="http://www.w3.org/2000/svg" viewBox="0 0 577.03 457.43"><defs><style>.cls-1{fill:#fff;}</style></defs><path class="cls-1" d="M7.5,628.18c1.1,18.17,11.65,35,29.7,47.21C54.11,686.87,76,693.2,98.89,693.2c25.65,0,50.29-8.07,67.59-22.18L295.92,565.5,425.36,671c17.3,14.1,41.94,22.19,67.59,22.19,22.89,0,44.8-6.33,61.68-17.82,18-12.27,28.6-29,29.71-47.21s-7.35-35.59-23.84-49L419.86,464.49,560.5,349.82c16.49-13.44,25-30.85,23.84-49s-11.66-34.94-29.71-47.21c-16.89-11.48-38.81-17.8-61.68-17.8-25.65,0-50.29,8.09-67.59,22.18L295.92,363.49,166.48,258c-17.3-14.09-41.94-22.18-67.6-22.18-22.88,0-44.78,6.33-61.68,17.8-18.05,12.28-28.6,29-29.7,47.21s7.35,35.59,23.84,49L172,464.5,31.34,579.15C14.85,592.6,6.39,610,7.5,628.18Zm55-27.83L206.67,482.82c12.64-10.29,12.64-26.4,0-36.67L62.52,328.59c-8.88-7.23-13.43-16.59-12.84-26.38s6.28-18.81,16-25.42c19.3-13.12,52-12,69.6,2.36L270.85,389.66c13,10.56,37.16,10.57,50.17,0l135.54-110.5c17.61-14.36,50.32-15.47,69.6-2.35,9.72,6.6,15.41,15.63,16,25.42s-4,19.17-12.84,26.4L385.17,446.13c-12.64,10.29-12.64,26.4,0,36.68L529.32,600.35c8.87,7.23,13.43,16.6,12.84,26.4s-6.28,18.81-16,25.42c-19.27,13.12-52,12-69.6-2.36L321,539.3C314.5,534,305.37,531,295.92,531s-18.58,3-25.09,8.32L135.3,649.8c-17.62,14.35-50.27,15.5-69.6,2.36-9.73-6.6-15.42-15.64-16-25.42S53.64,607.59,62.52,600.35Z" transform="translate(-7.41 -235.78)"/></svg>